<svg id="mountain-icon" xmlns="http://www.w3.org/2000/svg" width="72.181" height="42" viewBox="0 0 72.181 42">
  <path id="Pfad_1" data-name="Pfad 1" d="M26.1,42H0l1.715-2.643L26.058,1.774a1.685,1.685,0,0,1,.582-.605,1.711,1.711,0,0,1,2.356.546l9.422,15.061h0l1.98,3.16-1.028,1.586-2.4-3.842c-1.439-.429-3.442,5.228-4.964,5.011-2.1-.3-4.47-7.3-5.968-5.475l-5.116,6.238-5.363-2.32L3.143,40.285H27.209L26.1,42Zm43.833-.129H32.825L34.07,39.95l9.146-14.121.429-.664h0l8.095-12.5a1.214,1.214,0,0,1,.423-.441,1.239,1.239,0,0,1,1.709.4l6.843,10.932h0L70.948,39.9a.967.967,0,0,1,.082.129l1.151,1.839ZM35.11,40.625H69.937L59.663,24.207c-1.046-.311-2.5,3.795-3.607,3.636-1.521-.217-3.248-5.3-4.335-3.977L48.009,28.4,44.115,26.71,35.11,40.625ZM44.285,0a4.9,4.9,0,1,1-4.9,4.9,4.9,4.9,0,0,1,4.9-4.9Z" fill="#fff"/>
</svg>
