<svg xmlns="http://www.w3.org/2000/svg" width="57.606" height="46.085" viewBox="0 0 57.606 46.085">
  <path id="iconmonstr-quote-left-filled" d="M57.593,4a1.948,1.948,0,0,1,2.013,1.91,2.343,2.343,0,0,1-1.432,2.022c-5.15,2.731-11.112,12.172-11.112,18,8.687-.265,12.46,7.437,12.46,12.264A12.31,12.31,0,0,1,47.114,50.085C37.782,50.085,33.2,42.749,33.2,34.8,33.2,17.575,52.887,4,57.593,4Zm-31.2,0A1.95,1.95,0,0,1,28.4,5.91a2.343,2.343,0,0,1-1.432,2.022c-5.15,2.731-11.112,12.172-11.112,18,8.687-.265,12.46,7.437,12.46,12.264A12.312,12.312,0,0,1,15.912,50.085C6.577,50.085,2,42.749,2,34.8,2,17.575,21.681,4,26.391,4Z" transform="translate(-2 -4)" fill="#bcbcbc"/>
</svg>
