<svg xmlns="http://www.w3.org/2000/svg" width="80.956" height="80.956" viewBox="0 0 80.956 80.956">
  <path id="iconmonstr-facebook-6_1_" data-name="iconmonstr-facebook-6 (1)" d="M76.486,0H4.469A4.468,4.468,0,0,0,0,4.469V76.49a4.468,4.468,0,0,0,4.469,4.466H43.244V49.606H32.693V37.388H43.244v-9.01c0-10.457,6.385-16.151,15.716-16.151a86.543,86.543,0,0,1,9.428.482V23.639l-6.47,0c-5.073,0-6.055,2.412-6.055,5.947v7.8h12.1L66.387,49.609H55.863V80.956h20.63a4.467,4.467,0,0,0,4.463-4.469V4.469A4.468,4.468,0,0,0,76.486,0Z" fill="#fff"/>
</svg>
