<svg xmlns="http://www.w3.org/2000/svg" width="80.956" height="80.956" viewBox="0 0 80.956 80.956">
  <path id="iconmonstr-instagram-11_1_" data-name="iconmonstr-instagram-11 (1)" d="M40.478,7.3c10.808,0,12.089.04,16.36.236,10.97.5,16.093,5.7,16.593,16.593.2,4.267.233,5.549.233,16.356s-.04,12.089-.233,16.356c-.5,10.878-5.613,16.093-16.593,16.593-4.27.2-5.545.236-16.36.236s-12.089-.04-16.356-.236c-11-.5-16.093-5.731-16.593-16.6-.2-4.267-.236-5.545-.236-16.356s.044-12.086.236-16.356c.5-10.885,5.613-16.093,16.593-16.593,4.27-.192,5.549-.233,16.356-.233Zm0-7.3C29.485,0,28.109.047,23.791.243,9.091.917.921,9.074.246,23.788.047,28.109,0,29.485,0,40.478s.047,12.373.243,16.69c.675,14.7,8.831,22.87,23.545,23.545,4.321.2,5.7.243,16.69.243s12.373-.047,16.69-.243c14.687-.675,22.877-8.831,23.541-23.545.2-4.318.246-5.7.246-16.69s-.047-12.369-.243-16.687C80.052,9.1,71.885.921,57.172.246,52.851.047,51.471,0,40.478,0Zm0,19.692A20.787,20.787,0,1,0,61.263,40.478,20.786,20.786,0,0,0,40.478,19.692Zm0,34.278A13.493,13.493,0,1,1,53.971,40.478,13.491,13.491,0,0,1,40.478,53.971ZM62.086,14.015a4.857,4.857,0,1,0,4.854,4.857A4.859,4.859,0,0,0,62.086,14.015Z" fill="#fff"/>
</svg>
