<svg xmlns="http://www.w3.org/2000/svg" width="80.956" height="80.956" viewBox="0 0 80.956 80.956">
  <path id="iconmonstr-linkedin-3_1_" data-name="iconmonstr-linkedin-3 (1)" d="M64.09,0H16.866A16.868,16.868,0,0,0,0,16.866V64.09A16.868,16.868,0,0,0,16.866,80.956H64.09A16.865,16.865,0,0,0,80.956,64.09V16.866A16.865,16.865,0,0,0,64.09,0Zm-37.1,64.09H16.866v-37.1H26.985Zm-5.06-41.382a5.95,5.95,0,1,1,5.9-5.95A5.928,5.928,0,0,1,21.926,22.708ZM67.463,64.09H57.344v-18.9c0-11.361-13.493-10.5-13.493,0v18.9H33.732v-37.1H43.851v5.954c4.709-8.723,23.612-9.367,23.612,8.352Z" fill="#fff"/>
</svg>
